<?xml version="1.0" standalone="no"?>
<!DOCTYPE svg PUBLIC "-//W3C//DTD SVG 20010904//EN"
 "http://www.w3.org/TR/2001/REC-SVG-20010904/DTD/svg10.dtd">
<svg version="1.0" xmlns="http://www.w3.org/2000/svg"
 width="448.000000pt" height="409.000000pt" viewBox="0 0 448.000000 409.000000"
 preserveAspectRatio="xMidYMid meet">

<g transform="translate(0.000000,409.000000) scale(0.100000,-0.100000)"
fill="#000000" stroke="none">
<path d="M2790 3938 c-766 -214 -1771 -506 -1818 -528 -169 -79 -285 -268
-284 -459 1 -83 4 -95 247 -936 70 -242 147 -512 172 -600 108 -387 167 -583
191 -630 13 -27 55 -80 92 -117 105 -105 223 -152 366 -146 l69 3 3 80 3 80
-83 0 c-101 1 -173 30 -240 97 -66 66 -118 193 -118 289 0 58 37 160 75 208
70 87 95 99 416 191 118 33 320 92 449 130 129 38 296 85 370 104 74 19 155
42 180 51 25 9 135 40 245 70 449 122 475 132 475 186 0 11 -88 326 -196 702
-108 375 -199 691 -201 702 -50 193 -119 407 -141 440 -54 78 -167 113 -272
83z m129 -183 c11 -14 22 -40 26 -58 7 -40 63 -240 279 -997 95 -333 170 -608
167 -612 -3 -3 -134 -43 -291 -88 -157 -45 -393 -112 -525 -150 -132 -38 -415
-119 -630 -180 -214 -61 -415 -123 -445 -137 -34 -17 -82 -55 -127 -100 -57
-57 -73 -69 -77 -55 -3 9 -37 130 -76 267 -39 138 -77 264 -84 281 -8 17 -26
80 -41 140 -14 60 -72 267 -128 459 -89 308 -101 360 -101 430 -1 67 3 89 26
137 32 68 99 138 157 164 57 25 1788 522 1823 523 17 1 33 -8 47 -24z"/>
<path d="M2663 1386 c-485 -139 -892 -260 -906 -269 -44 -28 -43 -90 2 -124
24 -18 47 -16 177 17 66 16 124 30 129 30 6 0 -18 -16 -53 -36 -35 -20 -65
-41 -68 -48 -2 -6 -3 -159 -2 -339 l3 -328 99 70 c55 39 105 71 111 71 12 0
35 -15 132 -87 39 -29 74 -53 77 -53 3 0 6 191 6 424 l0 423 623 177 c537 153
625 181 645 203 44 49 6 124 -62 122 -17 0 -428 -114 -913 -253z"/>
<path d="M3130 1065 c-333 -96 -615 -179 -627 -184 -21 -10 -23 -17 -23 -91 0
-44 3 -80 7 -80 4 0 299 84 657 186 702 200 699 199 699 265 0 39 -41 79 -81
78 -15 -1 -299 -79 -632 -174z"/>
</g>
</svg>
