<?xml version="1.0" standalone="no"?>
<!DOCTYPE svg PUBLIC "-//W3C//DTD SVG 20010904//EN"
 "http://www.w3.org/TR/2001/REC-SVG-20010904/DTD/svg10.dtd">
<svg version="1.0" xmlns="http://www.w3.org/2000/svg"
 width="448.000000pt" height="409.000000pt" viewBox="0 0 448.000000 409.000000"
 preserveAspectRatio="xMidYMid meet">

<g transform="translate(0.000000,409.000000) scale(0.100000,-0.100000)"
fill="#000000" stroke="none">
<path d="M0 2045 l0 -2045 2240 0 2240 0 0 2045 0 2045 -2240 0 -2240 0 0
-2045z m2915 1743 c48 -18 93 -55 119 -101 25 -43 526 -1783 526 -1826 0 -59
-26 -75 -200 -124 -119 -33 -324 -92 -1358 -387 -280 -81 -466 -139 -490 -154
-98 -63 -154 -165 -154 -279 1 -133 58 -256 148 -317 67 -47 122 -62 209 -58
l75 3 0 -91 0 -92 -43 -6 c-56 -9 -172 8 -239 35 -109 43 -219 144 -277 256
-17 33 -579 2003 -593 2078 -23 126 17 277 104 391 37 49 124 121 184 152 19
10 255 78 1479 427 182 52 348 99 370 104 43 10 93 6 140 -11z m655 -2303 c48
-25 62 -68 39 -119 -7 -14 -19 -28 -28 -32 -9 -4 -293 -86 -631 -183 l-615
-177 -3 -427 c-1 -235 -4 -427 -7 -427 -3 0 -45 29 -93 63 -133 97 -114 95
-222 18 -53 -37 -101 -70 -108 -75 -9 -6 -12 69 -12 343 l0 351 65 29 c36 16
65 33 65 36 0 3 -4 4 -8 1 -29 -18 -256 -75 -277 -70 -33 8 -65 50 -65 85 0
66 11 71 475 203 564 162 1345 383 1370 389 11 3 21 5 23 6 2 0 16 -6 32 -14z
m203 -415 c49 -39 42 -116 -12 -145 -15 -7 -117 -39 -227 -70 -444 -126 -1077
-307 -1091 -312 -11 -5 -13 11 -11 92 l3 98 620 178 c341 97 636 178 656 178
22 1 46 -7 62 -19z"/>
<path d="M1900 3362 c-963 -277 -949 -272 -1015 -357 -15 -21 -37 -60 -47 -88
-40 -106 -40 -108 197 -939 120 -420 219 -765 221 -766 1 -2 29 24 62 59 l59
63 -29 95 c-16 53 -97 334 -180 626 -129 454 -151 540 -151 600 0 157 92 309
230 378 26 14 409 127 851 253 l803 229 -7 30 c-11 53 -31 75 -67 74 -17 0
-435 -116 -927 -257z"/>
</g>
</svg>
