<svg width="67" height="63" viewBox="0 0 67 63" fill="none" xmlns="http://www.w3.org/2000/svg">
<g filter="url(#filter0_d_54_361)">
<path d="M41.6474 50.6477H25.3523V53.7424H41.6474V50.6477Z" fill="#C3C6C8"/>
<path d="M38.0371 43.7558H28.9624L27.7697 50.6477H39.23L38.0371 43.7558Z" fill="#7D868C"/>
<path d="M5.24054 40.9035V8.56582C5.24054 6.74637 6.72919 5.25772 8.54864 5.25772H58.4512C60.2706 5.25772 61.7593 6.74637 61.7593 8.56582V40.9035H5.24054Z" fill="#333E48"/>
<path d="M58.4512 8.56583H8.54864V39.4139H58.4512V8.56583Z" fill="#1E252B"/>
<path opacity="0.05" d="M37.0597 8.56583L8.54864 37.0769V39.4137H37.1217L58.4512 18.0844V8.56583H37.0597Z" fill="#A4A9AD"/>
<path d="M5.24054 38.7521V40.9033C5.24054 42.7228 6.72919 44.2114 8.54864 44.2114H58.4512C60.2706 44.2114 61.7593 42.7228 61.7593 40.9033V38.7521H5.24054Z" fill="#C3C6C8"/>
<path d="M33.5 42.778C34.2159 42.778 34.7961 42.1978 34.7961 41.4819C34.7961 40.7661 34.2159 40.1858 33.5 40.1858C32.7841 40.1858 32.2039 40.7661 32.2039 41.4819C32.2039 42.1978 32.7841 42.778 33.5 42.778ZM58.4512 4.01718H8.54864C6.04044 4.01718 4 6.05762 4 8.56582V40.9035C4 43.4117 6.04044 45.4521 8.54864 45.4521H27.4098L26.7253 49.4072H25.3523C24.6672 49.4072 24.1118 49.9626 24.1118 50.6477V53.7424C24.1118 54.4275 24.6672 54.983 25.3523 54.983H41.6474C42.3325 54.983 42.8879 54.4275 42.8879 53.7424V50.6477C42.8879 49.9626 42.3325 49.4072 41.6474 49.4072H40.2743L39.5899 45.4521H58.4514C60.9596 45.4521 63 43.4117 63 40.9035V8.56582C62.9998 6.05778 60.9594 4.01718 58.4512 4.01718ZM40.4068 51.8882V52.5019H26.5928V51.8882H40.4068ZM29.2433 49.4072L29.9279 45.4521H37.0719L37.7565 49.4072H29.2433ZM60.5188 40.9035C60.5188 42.0436 59.5913 42.9711 58.4512 42.9711H8.54864C7.4085 42.9711 6.48108 42.0436 6.48108 40.9035V39.9928H60.5188V40.9035ZM9.78918 37.5115V9.80619H57.2107V37.5115H9.78918ZM60.5188 37.5115H59.6917V8.56566C59.6917 7.88055 59.1363 7.32512 58.4512 7.32512H8.54864C7.86353 7.32512 7.3081 7.88055 7.3081 8.56566V37.5115H6.48108V8.56566C6.48108 7.42552 7.4085 6.49809 8.54864 6.49809H58.4512C59.5913 6.49809 60.5188 7.42552 60.5188 8.56566V37.5115Z" fill="#071C2C"/>
</g>
<defs>
<filter id="filter0_d_54_361" x="0" y="0" width="67" height="67" filterUnits="userSpaceOnUse" color-interpolation-filters="sRGB">
<feFlood flood-opacity="0" result="BackgroundImageFix"/>
<feColorMatrix in="SourceAlpha" type="matrix" values="0 0 0 0 0 0 0 0 0 0 0 0 0 0 0 0 0 0 127 0" result="hardAlpha"/>
<feOffset dy="4"/>
<feGaussianBlur stdDeviation="2"/>
<feComposite in2="hardAlpha" operator="out"/>
<feColorMatrix type="matrix" values="0 0 0 0 0 0 0 0 0 0 0 0 0 0 0 0 0 0 0.25 0"/>
<feBlend mode="normal" in2="BackgroundImageFix" result="effect1_dropShadow_54_361"/>
<feBlend mode="normal" in="SourceGraphic" in2="effect1_dropShadow_54_361" result="shape"/>
</filter>
</defs>
</svg>
