<svg width="20" height="20" viewBox="0 0 20 20" fill="none" xmlns="http://www.w3.org/2000/svg">
<path fill-rule="evenodd" clip-rule="evenodd" d="M18 10C18 14.4183 14.4183 18 10 18C5.58172 18 2 14.4183 2 10C2 5.58172 5.58172 2 10 2C14.4183 2 18 5.58172 18 10ZM20 10C20 15.5228 15.5228 20 10 20C4.47715 20 0 15.5228 0 10C0 4.47715 4.47715 0 10 0C15.5228 0 20 4.47715 20 10ZM9.318 14.0143L15.6485 7.68419C16.1172 7.21497 16.1172 6.45471 15.6483 5.98575C15.1795 5.51706 14.419 5.5167 13.95 5.98575L8.46903 11.4667L6.04997 9.04763C5.58113 8.57876 4.82075 8.57876 4.35171 9.04781C3.88275 9.51677 3.88275 10.2773 4.35171 10.7462L7.61956 14.0143C8.08878 14.4831 8.84922 14.4831 9.318 14.0143Z" fill="#27B46E"/>
</svg>
