<svg width="28" height="28" viewBox="0 0 28 28" fill="none" xmlns="http://www.w3.org/2000/svg">
<path d="M6.36353 15.2727V20.3636C6.36353 21.0665 6.93337 21.6364 7.63625 21.6364H12.7272C13.0647 21.6364 13.3884 21.5022 13.6271 21.2635L27.627 7.26354C28.124 6.7665 28.124 5.96069 27.627 5.46365L22.5361 0.372739C22.2976 0.134145 21.9738 0 21.6363 0C21.2987 0 20.9749 0.134145 20.7363 0.372824L6.73635 14.3728C6.49759 14.6114 6.36353 14.9352 6.36353 15.2727ZM8.90898 15.7999L21.6363 3.07262L24.9273 6.36364L12.2 19.0909H8.90898V15.7999Z" fill="white"/>
<path d="M26.7273 12.7274C26.0244 12.7274 25.4545 13.2972 25.4545 14.0001V25.4545H2.54545V2.54545H14C14.7029 2.54545 15.2727 1.97561 15.2727 1.27273C15.2727 0.569842 14.7029 0 14 0H1.27273C0.569842 0 0 0.569842 0 1.27273V26.7273C0 27.4302 0.569842 28 1.27273 28H26.7273C27.4302 28 28 27.4302 28 26.7273V14.0001C28 13.2971 27.4302 12.7274 26.7273 12.7274Z" fill="white"/>
</svg>
