<svg width="24" height="24" viewBox="0 0 24 24" fill="none" xmlns="http://www.w3.org/2000/svg">
<path d="M16 6.4125C16 6.15 15.8958 5.89584 15.7083 5.70834L11.6292 1.625C11.4417 1.4375 11.1875 1.33334 10.9208 1.33334H10.6667V6.66667H16V6.4125ZM23.7917 14.1667L19.8042 10.15C19.3833 9.72917 18.6625 10.025 18.6625 10.6208V13.3333H15.9958V16H18.6625V18.7167C18.6625 19.3125 19.3833 19.6083 19.8042 19.1875L23.7917 15.1667C24.0667 14.8917 24.0667 14.4417 23.7917 14.1667ZM8 15.3333V14C8 13.6333 8.3 13.3333 8.66667 13.3333H16V8H10.3333C9.78333 8 9.33333 7.55 9.33333 7V1.33334H1C0.445833 1.33334 0 1.77917 0 2.33334V21.6667C0 22.2208 0.445833 22.6667 1 22.6667H15C15.5542 22.6667 16 22.2208 16 21.6667V16H8.66667C8.3 16 8 15.7 8 15.3333Z" fill="#012233"/>
</svg>
