<svg width="20" height="20" viewBox="0 0 20 20" fill="none" xmlns="http://www.w3.org/2000/svg">
<path fill-rule="evenodd" clip-rule="evenodd" d="M18 10C18 14.4183 14.4183 18 10 18C5.58172 18 2 14.4183 2 10C2 5.58172 5.58172 2 10 2C14.4183 2 18 5.58172 18 10ZM20 10C20 15.5228 15.5228 20 10 20C4.47715 20 0 15.5228 0 10C0 4.47715 4.47715 0 10 0C15.5228 0 20 4.47715 20 10ZM11.8064 15.4185C11.8064 14.4209 10.9976 13.6122 10 13.6122C9.00241 13.6122 8.19365 14.4209 8.19365 15.4185C8.19365 16.4162 9.00241 17.2249 10 17.2249C10.9976 17.2249 11.8064 16.4162 11.8064 15.4185ZM12.7982 5.57842C12.7982 4.03264 11.5451 2.77954 9.99929 2.77954C8.45353 2.77954 7.20043 4.03264 7.20043 5.57842C7.20043 7.35024 7.74863 9.6385 8.14931 11.0787L8.30997 11.64C8.53279 12.3971 9.22954 12.8917 10.0004 12.8917C10.7697 12.8917 11.4657 12.3992 11.6893 11.6435C12.0832 10.3119 12.7982 7.62481 12.7982 5.57842Z" fill="#F03613"/>
</svg>
