<svg width="48" height="48" viewBox="0 0 48 48" fill="none" xmlns="http://www.w3.org/2000/svg">
<path d="M40.4078 9.23527H35.6483V6.90075C35.6483 3.09567 32.5526 0 28.7474 0H19.2525C15.4474 0 12.3517 3.09567 12.3517 6.90075V9.23527H7.59225C4.13361 9.23527 1.32977 12.0391 1.32977 15.4977V23.3738H46.6701V15.4977C46.6702 12.039 43.8664 9.23527 40.4078 9.23527ZM30.6383 9.23527H17.3618V6.90075C17.3618 5.85817 18.2099 5.00998 19.2526 5.00998H28.7477C29.7902 5.00998 30.6384 5.85817 30.6384 6.90075L30.6383 9.23527Z" fill="#006599"/>
<path d="M40.4912 30.6027C40.4912 31.4074 39.839 32.0596 39.0344 32.0596H33.8486C33.044 32.0596 32.3918 31.4074 32.3918 30.6027V28.0098H15.6083V30.6027C15.6083 31.4074 14.9562 32.0596 14.1516 32.0596H8.96548C8.16113 32.0596 7.50896 31.4074 7.50896 30.6027V28.0098H1.3299V41.7376C1.3299 45.1961 4.13373 48.0001 7.59237 48.0001H40.4077C43.8664 48.0001 46.6702 45.1961 46.6702 41.7376V28.0098H40.4912V30.6027Z" fill="#006599"/>
</svg>
