<svg width="30" height="30" viewBox="0 0 30 30" fill="none" xmlns="http://www.w3.org/2000/svg">
<path fill-rule="evenodd" clip-rule="evenodd" d="M20 11.25C20 14.0114 17.7614 16.25 15 16.25C12.2386 16.25 10 14.0114 10 11.25C10 8.48857 12.2386 6.25 15 6.25C17.7614 6.25 20 8.48857 20 11.25Z" fill="#012233"/>
<path fill-rule="evenodd" clip-rule="evenodd" d="M15 1.25C7.40609 1.25 1.25 7.40609 1.25 15C1.25 22.5939 7.40609 28.75 15 28.75C22.5939 28.75 28.75 22.5939 28.75 15C28.75 7.40609 22.5939 1.25 15 1.25ZM3.75 15C3.75 17.6128 4.64069 20.0175 6.13497 21.9271C8.19056 19.2361 11.4328 17.5 15.0806 17.5C18.681 17.5 21.8865 19.1914 23.9456 21.8229C25.3913 19.9304 26.25 17.5655 26.25 15C26.25 8.7868 21.2132 3.75 15 3.75C8.7868 3.75 3.75 8.7868 3.75 15Z" fill="#012233"/>
</svg>
