<svg width="30" height="30" viewBox="0 0 30 30" fill="none" xmlns="http://www.w3.org/2000/svg">
<path d="M29.715 13.2875C29.4775 13.6 29.115 13.75 28.7525 13.75C28.4775 13.75 28.19 13.6625 27.965 13.4625L15.365 3.16245L15 2.86245L14.6225 3.1687L2.03501 13.4612C1.81001 13.6612 1.52251 13.7487 1.24751 13.7487C0.885006 13.7487 0.522506 13.5987 0.285006 13.2862C-0.152493 12.7612 -0.0774935 11.9737 0.460006 11.5362L14.21 0.286201C14.6725 -0.101299 15.335 -0.0887992 15.785 0.286201L21.275 4.7737C21.375 4.1862 21.8875 3.7487 22.5 3.7487H25C25.6875 3.7487 26.25 4.3112 26.25 4.9987V8.8487L29.5375 11.5362C30.0775 11.9737 30.1525 12.7612 29.715 13.2862V13.2875Z" fill="#012233"/>
<path d="M27.5 16.25V27.5C27.5 28.875 26.375 30 25 30H4.9975C3.6225 30 2.4975 28.875 2.4975 27.5V16.25C2.4975 15.5625 3.06 15 3.7475 15C4.435 15 4.9975 15.5625 4.9975 16.25V26.875C4.9975 27.225 5.2725 27.5 5.6225 27.5H11.2475V18.75C11.2475 18.0625 11.81 17.5 12.4975 17.5H17.5C18.1875 17.5 18.75 18.0625 18.75 18.75V27.5H24.375C24.725 27.5 25 27.225 25 26.875V16.25C25 15.5625 25.5625 15 26.25 15C26.9375 15 27.5 15.5625 27.5 16.25Z" fill="#012233"/>
</svg>
