<svg width="30" height="30" viewBox="0 0 30 30" fill="none" xmlns="http://www.w3.org/2000/svg">
<path d="M22.95 1C24.883 1 26.45 2.56701 26.45 4.5V24.45C26.45 25.0299 25.9799 25.5 25.4 25.5H5.45001C5.45001 26.2732 6.07681 26.9 6.85001 26.9H25.4C25.9799 26.9 26.45 27.3701 26.45 27.95C26.45 28.5299 25.9799 29 25.4 29H6.85001C4.91701 29 3.35001 27.433 3.35001 25.5V4.5C3.35001 2.56701 4.91701 1 6.85001 1H22.95ZM20.15 5.2H8.95001C8.17681 5.2 7.55001 5.82681 7.55001 6.6V8C7.55001 8.77319 8.17681 9.4 8.95001 9.4H20.15C20.9232 9.4 21.55 8.77319 21.55 8V6.6C21.55 5.82681 20.9232 5.2 20.15 5.2Z" fill="#012233"/>
</svg>
