<svg width="30" height="30" viewBox="0 0 30 30" fill="none" xmlns="http://www.w3.org/2000/svg">
<path d="M23.0061 1C24.8805 1 26.4 2.56701 26.4 4.5V24.45C26.4 25.0299 25.9441 25.5 25.3818 25.5H6.03636C6.03636 26.2732 6.64418 26.9 7.39394 26.9H25.3818C25.9441 26.9 26.4 27.3701 26.4 27.95C26.4 28.5299 25.9441 29 25.3818 29H7.39394C5.51952 29 4 27.433 4 25.5V4.5C4 2.56701 5.51952 1 7.39394 1H23.0061ZM23.0061 3.1H7.39394C6.64418 3.1 6.03636 3.72681 6.03636 4.5V23.4H24.3636V4.5C24.3636 3.72681 23.7558 3.1 23.0061 3.1ZM20.2909 5.2C21.0407 5.2 21.6485 5.82681 21.6485 6.6V9.4C21.6485 10.1732 21.0407 10.8 20.2909 10.8H9.4303C8.68054 10.8 8.07273 10.1732 8.07273 9.4V6.6C8.07273 5.82681 8.68054 5.2 9.4303 5.2H20.2909ZM19.6121 7.3H10.1091V8.7H19.6121V7.3Z" fill="#012233"/>
</svg>
