<svg width="14" height="14" viewBox="0 0 14 14" fill="none" xmlns="http://www.w3.org/2000/svg">
<path d="M6.99981 0C3.13397 0 0 3.13411 0 6.99995C0 10.8658 3.13397 13.9999 6.99981 13.9999C10.8657 13.9999 14 10.8657 14 6.99995C14 3.13397 10.8657 0 6.99981 0ZM10.1363 10.1362C10.1363 10.606 9.75555 10.9867 9.28589 10.9867H4.71407C4.24422 10.9867 3.86356 10.606 3.86356 10.1362V3.86351C3.86356 3.39376 4.24432 3.01301 4.71407 3.01301H8.30238V4.71402H10.1363V10.1362ZM8.6655 4.35081V3.01291L10.1363 4.35081H8.6655Z" fill="black"/>
</svg>
