<svg width="24" height="24" viewBox="0 0 24 24" fill="none" xmlns="http://www.w3.org/2000/svg">
<path fill-rule="evenodd" clip-rule="evenodd" d="M16.8684 2.3916C16.817 2.39038 16.7658 2.39949 16.718 2.41838C16.6702 2.43728 16.6267 2.46559 16.59 2.50162C16.5533 2.53765 16.5242 2.58068 16.5045 2.62815C16.4847 2.67563 16.4747 2.72658 16.475 2.778L16.5638 18.2839C16.5641 18.3568 16.5852 18.4281 16.6245 18.4894C16.6638 18.5508 16.7198 18.5997 16.7858 18.6305L22.8535 21.449C22.9121 21.4763 22.9766 21.4884 23.0411 21.4841C23.1056 21.4799 23.1679 21.4594 23.2224 21.4246C23.2769 21.3899 23.3217 21.3419 23.3528 21.2852C23.3838 21.2285 23.4 21.1649 23.4 21.1003V5.63592C23.4 5.56265 23.3791 5.4909 23.3398 5.42911C23.3004 5.36733 23.2442 5.31809 23.1777 5.2872L17.0215 2.42712C16.9734 2.40485 16.9213 2.39276 16.8684 2.3916ZM15.0612 2.478C15.007 2.47874 14.9536 2.49092 14.9045 2.51376L8.58046 5.45184C8.51377 5.4829 8.4574 5.53245 8.41805 5.59461C8.37869 5.65677 8.35801 5.72891 8.35846 5.80248L8.44654 21.2258C8.44681 21.2903 8.46328 21.3536 8.49443 21.41C8.52559 21.4664 8.57043 21.5141 8.62482 21.5486C8.67922 21.5831 8.74143 21.6034 8.80573 21.6076C8.87003 21.6118 8.93435 21.5998 8.99278 21.5726L15.3168 18.6346C15.3835 18.6035 15.4399 18.554 15.4793 18.4918C15.5187 18.4297 15.5394 18.3575 15.539 18.2839L15.4509 2.86056C15.4507 2.80979 15.4404 2.75958 15.4206 2.71282C15.4008 2.66606 15.372 2.62368 15.3358 2.58814C15.2995 2.55259 15.2566 2.52457 15.2095 2.50571C15.1623 2.48685 15.1119 2.47751 15.0612 2.47824V2.478ZM0.993336 2.55432C0.942134 2.5531 0.891207 2.56214 0.843547 2.58089C0.795887 2.59964 0.752456 2.62772 0.715808 2.6635C0.679159 2.69928 0.650033 2.74202 0.630141 2.78921C0.610249 2.83641 0.599993 2.8871 0.599976 2.93832V18.4025C0.600056 18.4756 0.621011 18.5472 0.660378 18.6089C0.699746 18.6705 0.755891 18.7196 0.822216 18.7505L6.8755 21.5633C6.9342 21.5906 6.99885 21.6026 7.06344 21.5982C7.12803 21.5939 7.19047 21.5732 7.24497 21.5383C7.29946 21.5033 7.34423 21.4552 7.37514 21.3983C7.40604 21.3414 7.42207 21.2776 7.42174 21.2129L7.33318 5.70696C7.33287 5.63402 7.31181 5.56267 7.27245 5.50126C7.2331 5.43985 7.17708 5.39091 7.11094 5.36016L1.14646 2.58984C1.09841 2.56757 1.04628 2.55548 0.993336 2.55432Z" fill="#012233"/>
</svg>
