<svg width="20" height="20" viewBox="0 0 20 20" fill="none" xmlns="http://www.w3.org/2000/svg">
<path d="M8.75 12.3805V18.5012L9.61016 19.791C9.7957 20.0691 10.2047 20.0691 10.3902 19.791L11.25 18.5012V12.3805C10.8441 12.4555 10.4273 12.5 10 12.5C9.57266 12.5 9.15586 12.4555 8.75 12.3805ZM10 0C6.89336 0 4.375 2.51836 4.375 5.625C4.375 8.73164 6.89336 11.25 10 11.25C13.1066 11.25 15.625 8.73164 15.625 5.625C15.625 2.51836 13.1066 0 10 0ZM10 2.96875C8.53516 2.96875 7.34375 4.16016 7.34375 5.625C7.34375 5.88359 7.13359 6.09375 6.875 6.09375C6.61641 6.09375 6.40625 5.88359 6.40625 5.625C6.40625 3.64336 8.01875 2.03125 10 2.03125C10.2586 2.03125 10.4688 2.24141 10.4688 2.5C10.4688 2.75859 10.2586 2.96875 10 2.96875Z" fill="#006599"/>
</svg>
