<?xml version="1.0" encoding="iso-8859-1"?>
<!-- Generator: Adobe Illustrator 19.0.0, SVG Export Plug-In . SVG Version: 6.00 Build 0)  -->
<svg version="1.1" id="Layer_1" xmlns="http://www.w3.org/2000/svg" xmlns:xlink="http://www.w3.org/1999/xlink" x="0px" y="0px"
	 viewBox="0 0 512.001 512.001" style="enable-background:new 0 0 512.001 512.001;" xml:space="preserve">
<path style="fill:#BD6428;" d="M112,64.001h288c17.672,0,32,14.328,32,32v384c0,17.672-14.328,32-32,32H112
	c-17.672,0-32-14.328-32-32v-384C80,78.329,94.328,64.001,112,64.001z"/>
<path style="fill:#F5F6F6;" d="M120,480.001c-4.416,0-8-3.584-8-8v-368c0-4.416,3.584-8,8-8h272c4.416,0,8,3.584,8,8v288l-88,88H120
	z"/>
<path style="fill:#9BA7AF;" d="M256,168.001c-30.928,0-56,25.072-56,56l0,0v24h32v-24c0-13.256,10.744-24,24-24s24,10.744,24,24v24
	h32v-24C312,193.073,286.928,168.001,256,168.001z"/>
<path style="fill:#3689C9;" d="M320,248.001H192c-8.84,0-16,7.16-16,16v80c0,8.84,7.16,16,16,16h128c8.84,0,16-7.16,16-16v-80
	C336,255.169,328.84,248.001,320,248.001z"/>
<path style="fill:#A35623;" d="M176,96.001h-16v-16c0-8.84,7.16-16,16-16l0,0V96.001z"/>
<path style="fill:#CECECE;" d="M400,392.001h-80c-4.416,0-8,3.584-8,8v80L400,392.001z"/>
<path style="fill:#D17F4D;" d="M88,88.001L88,88.001c4.416,0,8,3.584,8,8v264c0,4.416-3.584,8-8,8l0,0c-4.416,0-8-3.584-8-8v-264
	C80,91.585,83.584,88.001,88,88.001z"/>
<g>
	<path style="fill:#E9E9E9;" d="M304,408.001v16c0,4.416-3.584,8-8,8l0,0c-4.416,0-8,3.584-8,8s-3.584,8-8,8h-8
		c-4.416,0-8,3.584-8,8s-3.584,8-8,8H112v8c0,4.416,3.584,8,8,8h192v-80C307.584,400.001,304,403.585,304,408.001z"/>
	<path style="fill:#E9E9E9;" d="M392,96.001H160c0.128,2.4,0.128,4.8,0,7.2c-0.44,8.824,6.352,16.336,15.176,16.776
		c0.28,0.016,0.552,0.024,0.824,0.024h192c8.84,0,16,7.16,16,16v24l0,0c0,8.84,7.16,16,16,16l0,0v-72
		C400,99.585,396.416,96.001,392,96.001z"/>
</g>
<path style="fill:#9BA7AF;" d="M308.72,45.121c-6.96-2.872-12.232-8.76-14.32-16c-6.184-21.208-28.392-33.384-49.6-27.2
	c-13.12,3.824-23.376,14.08-27.2,27.2c-2.088,7.24-7.36,13.128-14.32,16l-17.2,6.88c-6.064,2.416-10.056,8.272-10.08,14.8v29.2
	c0,8.84,7.16,16,16,16h128c8.84,0,16-7.16,16-16v-29.2c-0.024-6.528-4.016-12.384-10.08-14.8L308.72,45.121z M256,56.001
	c-8.84,0-16-7.16-16-16s7.16-16,16-16c8.84,0,16,7.16,16,16S264.84,56.001,256,56.001z"/>
<path style="fill:#72818B;" d="M312,64.001c-4.416,0-8,3.584-8,8l0,0c0,4.416-3.584,8-8,8h-16c-4.416,0-8,3.584-8,8l0,0
	c0,4.416-3.584,8-8,8h-88c0,8.84,7.16,16,16,16h128c8.84,0,16-7.16,16-16v-32H312z"/>
<path style="fill:#AFBABF;" d="M225.04,40.001c-4.416,0.144-8.112-3.328-8.248-7.744c-0.024-0.76,0.064-1.52,0.248-2.256
	c4.584-17.744,20.632-30.104,38.96-30c4.416,0,8,3.584,8,8s-3.584,8-8,8c-10.96-0.016-20.544,7.392-23.28,18
	C231.816,37.513,228.664,39.969,225.04,40.001z"/>
<path style="fill:#A35623;" d="M400,80.001h-32c-8.84,0-16-7.16-16-16h-16v32h56c4.416,0,8,3.584,8,8v288l-88,88H120
	c0,8.84,7.16,16,16,16h194.72c8.488,0.008,16.632-3.36,22.64-9.36l53.28-53.28c6-6.008,9.368-14.152,9.36-22.64V96.001
	C416,87.169,408.84,80.001,400,80.001z"/>
<path style="fill:#35363E;" d="M256,288.001c-8.84,0-16,7.16-16,16l0,0c0,8.84,7.16,16,16,16c8.84,0,16-7.16,16-16l0,0
	C272,295.169,264.84,288.001,256,288.001z"/>
<g>
	<path style="fill:#72818B;" d="M291.36,180.641c8.16,9.984,12.624,22.472,12.64,35.36v16c0,4.416-3.584,8-8,8h-8
		c-4.416,0-8,3.584-8,8h32v-24C311.984,207.185,304.4,191.265,291.36,180.641z"/>
	<path style="fill:#72818B;" d="M242.88,192.561c-11.088,2.664-18.896,12.592-18.88,24v15.44c0,4.416-3.584,8-8,8h-8
		c-4.416,0-8,3.584-8,8h32v-22.56c-0.248-11.824,7.784-22.216,19.28-24.96c5.896-1.184,12.024-0.072,17.12,3.12
		C263.112,194.865,252.872,190.441,242.88,192.561z"/>
</g>
<path style="fill:#1B6FAB;" d="M320,360.001H192c-4.416,0-8-3.584-8-8s3.584-8,8-8h128v-80c0-4.416,3.584-8,8-8s8,3.584,8,8v80
	C336,352.841,328.84,360.001,320,360.001z"/>
<path style="fill:#4C9FD7;" d="M192,248.001h56c4.416,0,8,3.584,8,8c0,4.416-3.584,8-8,8h-56v16c0,4.416-3.584,8-8,8s-8-3.584-8-8
	v-16C176,255.169,183.16,248.001,192,248.001z"/>
<g>
</g>
<g>
</g>
<g>
</g>
<g>
</g>
<g>
</g>
<g>
</g>
<g>
</g>
<g>
</g>
<g>
</g>
<g>
</g>
<g>
</g>
<g>
</g>
<g>
</g>
<g>
</g>
<g>
</g>
</svg>
